<svg version="1.1" viewBox="0 0 100 100" xmlns="http://www.w3.org/2000/svg" xmlns:xlink="http://www.w3.org/1999/xlink">
<defs>
<linearGradient id="b" x1="-520.21" x2="-503.35" y1="-542.58" y2="-519.24" gradientTransform="matrix(1 0 0 1 545 553.81)" gradientUnits="userSpaceOnUse">
<stop stop-opacity=".36471" offset="0"/>
<stop stop-opacity=".27059" offset="1"/>
</linearGradient>
<linearGradient id="c" x1="-478.78" x2="-454.76" y1="-540.68" y2="-499.07" gradientTransform="matrix(1 0 0 1 545 553.81)" gradientUnits="userSpaceOnUse">
<stop stop-opacity=".14902" offset="0"/>
<stop stop-color="#fff" stop-opacity=".066667" offset="1"/>
</linearGradient>
<linearGradient id="d" x1="-527.63" x2="-461.84" y1="-478.21" y2="-468.56" gradientTransform="matrix(1 0 0 1 545 553.81)" gradientUnits="userSpaceOnUse">
<stop stop-color="#fff" stop-opacity=".14902" offset="0"/>
<stop stop-color="#fff" stop-opacity=".16471" offset="1"/>
</linearGradient>
<linearGradient id="a" x1="50" x2="50" y1="90.752" y2="4.3783" gradientTransform="matrix(1 0 0 1 .00049862 4e-4)" gradientUnits="userSpaceOnUse" xlink:href="#e"/>
<linearGradient id="e">
<stop stop-color="#dedcc3" offset="0"/>
<stop stop-color="#fff" offset="1"/>
</linearGradient>
</defs>
<path d="m37.378 5.4436-2.3265 8.6822c-18.032 7.392-26.308 24.4-23.787 41.201l-6.3562 6.3562 12.622 21.862 8.6822-2.3265c6.824 5.2372 15.186 8.076 23.788 8.076 8.6021 5e-5 16.964-2.8388 23.788-8.076l8.6822 2.3265 12.622-21.862-6.3562-6.3557c3.2185-19.362-10.876-36.53-23.787-41.202l-2.3265-8.6822z" fill="#1a1a1a" fill-opacity=".6"/>
<path d="m65.424 1.793h-30.846l-2.6328 9.8242c-14.954 6.9972-24.666 21.983-24.666 38.607 0 1.2318 0.1339 2.457 0.2402 3.6836l3.7447 1.4189c-3.2841-19.971 11.057-37.733 23.787-41.201l2.3265-8.6822h25.245z" color="#000000" color-rendering="auto" dominant-baseline="auto" fill="url(#b)" image-rendering="auto" shape-rendering="auto" solid-color="#000000" stop-color="#000000" style="font-feature-settings:normal;font-variant-alternates:normal;font-variant-caps:normal;font-variant-east-asian:normal;font-variant-ligatures:normal;font-variant-numeric:normal;font-variant-position:normal;font-variation-settings:normal;inline-size:0;isolation:auto;mix-blend-mode:normal;shape-margin:0;shape-padding:0;text-decoration-color:#000000;text-decoration-line:none;text-decoration-style:solid;text-indent:0;text-orientation:mixed;text-transform:none;white-space:normal"/>
<path d="m62.623 5.4436 2.3265 8.6822 3.1058-2.5086-2.6309-9.8242z" fill-opacity=".07451"/>
<path d="m95.093 61.683-6.3562-6.3557 3.7443-1.4194 7.1738 7.1738z" fill-opacity=".082353"/>
<path d="m0.346 61.082 7.1738-7.1738 3.7447 1.4189-6.3562 6.3562z" fill-opacity=".32157"/>
<path d="m0.346 61.082 4.5623 0.60124 12.622 21.862-1.7607 4.2497z" fill-opacity=".11765"/>
<path d="m92.481 53.908c0.1063-1.2267 0.2402-2.4517 0.2402-3.6836 0-16.624-9.7117-31.61-24.666-38.607l-3.1058 2.5086c17.184 5.8031 27.185 28.14 23.787 41.202z" color="#000000" color-rendering="auto" dominant-baseline="auto" fill="url(#c)" image-rendering="auto" shape-rendering="auto" solid-color="#000000" stop-color="#000000" style="font-feature-settings:normal;font-variant-alternates:normal;font-variant-caps:normal;font-variant-east-asian:normal;font-variant-ligatures:normal;font-variant-numeric:normal;font-variant-position:normal;font-variation-settings:normal;inline-size:0;isolation:auto;mix-blend-mode:normal;shape-margin:0;shape-padding:0;text-decoration-color:#000000;text-decoration-line:none;text-decoration-style:solid;text-indent:0;text-orientation:mixed;text-transform:none;white-space:normal"/>
<path d="m95.093 61.683-12.622 21.862-8.6822-2.3265c-13.025 12.501-38.913 9.6924-47.576 0l-8.6822 2.3265-1.7607 4.2497 9.8418-2.6367c7.1571 4.994 15.631 7.7872 24.389 7.7871 8.7579 5e-5 17.232-2.7931 24.389-7.7871l9.8418 2.6367 15.424-26.713z" color="#000000" color-rendering="auto" dominant-baseline="auto" fill="url(#d)" image-rendering="auto" shape-rendering="auto" solid-color="#000000" stop-color="#000000" style="font-feature-settings:normal;font-variant-alternates:normal;font-variant-caps:normal;font-variant-east-asian:normal;font-variant-ligatures:normal;font-variant-numeric:normal;font-variant-position:normal;font-variation-settings:normal;inline-size:0;isolation:auto;mix-blend-mode:normal;shape-margin:0;shape-padding:0;text-decoration-color:#000000;text-decoration-line:none;text-decoration-style:solid;text-indent:0;text-orientation:mixed;text-transform:none;white-space:normal"/>
<path d="m47.751 19.473v3.8516c-13.836 1.1486-24.75 12.774-24.75 26.9 0 4.1111 0.9267 8.0084 2.5781 11.5l-3.334 1.9258 2.25 3.8965 3.3418-1.9297c4.8829 7.008 12.996 11.607 22.164 11.607 9.1676 0 17.279-4.5995 22.162-11.607l3.3437 1.9297 2.25-3.8965-3.3359-1.9258c1.6515-3.4917 2.5801-7.3888 2.5801-11.5 0-14.127-10.914-25.752-24.75-26.9v-3.8516zm0 8.3633v9.6367h-3.8125l6.0625 10.5 6.0625-10.5h-3.8125v-9.6367c11.391 1.1244 20.25 10.695 20.25 22.389 0 3.3002-0.7115 6.428-1.9805 9.248l-8.3535-4.8223 1.9062-3.3008-12.123-2e-3 6.0625 10.5 1.9043-3.3008 8.3535 4.8223c-4.08 5.6688-10.731 9.3555-18.27 9.3555-7.5388 0-14.19-3.6867-18.27-9.3555l8.3536-4.8223 1.9043 3.3008 6.0625-10.5h-12.123l1.9063 3.3027-8.3536 4.8223c-1.269-2.82-1.9804-5.9478-1.9804-9.248 0-11.693 8.859-21.264 20.25-22.389z" color="#000000" color-rendering="auto" dominant-baseline="auto" fill="url(#a)" image-rendering="auto" shape-rendering="auto" solid-color="#000000" stop-color="#000000" stroke="#1a1a1a" stroke-opacity=".06" stroke-width="1.5" style="font-feature-settings:normal;font-variant-alternates:normal;font-variant-caps:normal;font-variant-east-asian:normal;font-variant-ligatures:normal;font-variant-numeric:normal;font-variant-position:normal;font-variation-settings:normal;inline-size:0;isolation:auto;mix-blend-mode:normal;paint-order:stroke markers fill;shape-margin:0;shape-padding:0;text-decoration-color:#000000;text-decoration-line:none;text-decoration-style:solid;text-indent:0;text-orientation:mixed;text-transform:none;white-space:normal"/>
<path d="m36.241 3.9926-0.2969 1.1113-2.1523 8.0312c-14.728 6.4386-24.32 20.966-24.32 37.09 0 1.5096 0.1286 3.0139 0.2969 4.5137l-6.6856 6.6855 13.76 23.832 9.1504-2.4512c6.9584 5.1257 15.351 7.9473 24.008 7.9473 8.6569 5e-5 17.051-2.8209 24.01-7.9473l9.1485 2.4512 13.76-23.832-6.6855-6.6855c0.1683-1.5 0.2969-3.0039 0.2969-4.5137 0-16.124-9.5925-30.651-24.32-37.09l-2.4493-9.1426zm2.3008 3h22.916l2.2188 8.2754 0.6836 0.2832c14.029 5.8097 23.17 19.489 23.17 34.674 0 1.6394-0.1081 3.277-0.3223 4.9023l-0.096 0.73242 6.0586 6.0586-11.459 19.844-8.2754-2.2168-0.5859 0.45117c-6.5549 5.0307-14.587 7.7559-22.85 7.7559-8.2629 5e-5 -16.295-2.7252-22.85-7.7559l-0.586-0.45117-8.2754 2.2168-11.459-19.844 6.0586-6.0586-0.096-0.73438c-0.2141-1.6252-0.3222-3.2612-0.3222-4.9004 1e-4 -15.185 9.1423-28.864 23.172-34.674l0.6836-0.2832z" color="#000000" color-rendering="auto" dominant-baseline="auto" fill="url(#a)" image-rendering="auto" shape-rendering="auto" solid-color="#000000" stop-color="#000000" style="font-feature-settings:normal;font-variant-alternates:normal;font-variant-caps:normal;font-variant-east-asian:normal;font-variant-ligatures:normal;font-variant-numeric:normal;font-variant-position:normal;font-variation-settings:normal;inline-size:0;isolation:auto;mix-blend-mode:normal;shape-margin:0;shape-padding:0;text-decoration-color:#000000;text-decoration-line:none;text-decoration-style:solid;text-indent:0;text-orientation:mixed;text-transform:none;white-space:normal"/>
</svg>