<?xml version="1.0" encoding="utf-8"?>
<!-- Generator: Adobe Illustrator 15.0.2, SVG Export Plug-In . SVG Version: 6.00 Build 0)  -->
<!DOCTYPE svg PUBLIC "-//W3C//DTD SVG 1.1//EN" "http://www.w3.org/Graphics/SVG/1.1/DTD/svg11.dtd">
<svg version="1.1" id="Слой_1" xmlns="http://www.w3.org/2000/svg" xmlns:xlink="http://www.w3.org/1999/xlink" x="0px" y="0px"
	 width="46.833px" height="49.833px" viewBox="532.445 190.473 46.833 49.833"
	 enable-background="new 532.445 190.473 46.833 49.833" xml:space="preserve">
<g>
	<circle fill="none" stroke="currentColor" stroke-width="2" stroke-miterlimit="10" cx="555.667" cy="218" r="21.127"/>
	
		<line fill="none" stroke="currentColor" stroke-width="2" stroke-linecap="round" stroke-miterlimit="10" x1="555.667" y1="191.712" x2="555.667" y2="196.477"/>
	
		<line fill="none" stroke="currentColor" stroke-width="2" stroke-linecap="round" stroke-miterlimit="10" x1="537.389" y1="229.033" x2="533.287" y2="231.976"/>
	
		<line fill="none" stroke="currentColor" stroke-width="2" stroke-linecap="round" stroke-miterlimit="10" x1="573.904" y1="229.038" x2="578.001" y2="231.976"/>
</g>
<g>
	<path fill="currentColor" d="M555.938,226.955c-0.473-0.474-1.109-0.694-1.754-0.694c-0.891,0-1.797,0.421-2.318,1.183
		c-0.402,0.591-0.637,1.506-1.024,2.442l0,0c-0.001,0.003-0.002,0.005-0.003,0.008c-0.058,0.135-0.116,0.271-0.182,0.405
		c-0.016,0.033-0.032,0.064-0.049,0.099c-0.052,0.105-0.104,0.211-0.162,0.314c-0.025,0.046-0.052,0.09-0.078,0.135
		c-0.054,0.092-0.108,0.182-0.168,0.271c-0.033,0.05-0.067,0.1-0.103,0.147c-0.06,0.083-0.12,0.163-0.186,0.243
		c-0.041,0.051-0.083,0.102-0.127,0.151c-0.065,0.075-0.137,0.148-0.209,0.223c-0.049,0.049-0.097,0.097-0.147,0.145
		c-0.078,0.071-0.163,0.14-0.248,0.206c-0.056,0.043-0.106,0.087-0.164,0.128c-0.099,0.07-0.204,0.136-0.313,0.199
		c-0.055,0.033-0.104,0.068-0.163,0.101c-0.169,0.093-0.348,0.179-0.541,0.256c0.274,0.08,0.539,0.146,0.797,0.202
		c0.091,0.02,0.175,0.031,0.263,0.049c0.165,0.031,0.33,0.063,0.487,0.086c0.099,0.014,0.19,0.021,0.285,0.032
		c0.143,0.016,0.282,0.03,0.418,0.04c0.097,0.006,0.188,0.008,0.281,0.011c0.112,0.004,0.225,0.006,0.333,0.004
		c0.298-0.003,0.584-0.021,0.854-0.056c0.048-0.007,0.093-0.016,0.14-0.022c0.236-0.035,0.463-0.081,0.678-0.137
		c0.048-0.013,0.099-0.022,0.145-0.036c0.236-0.066,0.462-0.146,0.673-0.231c0.043-0.018,0.084-0.036,0.126-0.055
		c0.187-0.081,0.363-0.167,0.531-0.259c0.026-0.017,0.058-0.03,0.085-0.046c0.184-0.104,0.354-0.215,0.518-0.327
		c0.034-0.023,0.067-0.048,0.102-0.072c0.146-0.105,0.287-0.214,0.416-0.32c0.012-0.009,0.022-0.018,0.032-0.025
		c0.141-0.116,0.269-0.231,0.389-0.344c0.026-0.025,0.055-0.053,0.081-0.077c0.108-0.104,0.215-0.206,0.308-0.299
		c0.094-0.095,0.168-0.199,0.246-0.303l0,0C557.046,229.601,556.971,227.986,555.938,226.955z"/>
	<path fill="currentColor" d="M559.04,225.357c-0.002-0.006-0.157-0.508-0.565-0.916c-0.399-0.399-0.887-0.55-0.887-0.55
		c-0.137-0.037-0.256-0.106-0.36-0.192l-1.44,1.948c0.313,0.158,0.609,0.352,0.859,0.602c0.261,0.261,0.464,0.561,0.639,0.875
		l1.937-1.438C559.143,225.587,559.077,225.479,559.04,225.357z"/>
	<path fill="currentColor" d="M567.076,219.135c0,0,0.938-1.012,1.923-2.29c0.506-0.656,1.021-1.381,1.433-2.079
		c0.028-0.05,0.054-0.099,0.082-0.147c0.097-0.17,0.187-0.337,0.268-0.5c0.036-0.073,0.066-0.144,0.1-0.215
		c0.063-0.138,0.117-0.271,0.166-0.402c0.026-0.075,0.052-0.148,0.072-0.221c0.037-0.12,0.063-0.235,0.082-0.348
		c0.011-0.066,0.024-0.135,0.029-0.198c0.009-0.112-0.001-0.214-0.015-0.313c-0.008-0.048-0.007-0.102-0.02-0.146
		c-0.039-0.136-0.101-0.259-0.199-0.356c-0.078-0.078-0.172-0.131-0.273-0.171c-0.031-0.014-0.066-0.02-0.102-0.028
		c-0.075-0.021-0.155-0.034-0.241-0.038c-0.044-0.002-0.089-0.003-0.135-0.001c-0.077,0.003-0.158,0.014-0.241,0.027
		c-0.051,0.008-0.099,0.014-0.148,0.025c-0.097,0.021-0.197,0.054-0.299,0.086c-0.045,0.016-0.086,0.024-0.131,0.041
		c-0.146,0.053-0.293,0.114-0.445,0.186c-0.064,0.03-0.131,0.064-0.196,0.098c-0.094,0.046-0.187,0.093-0.281,0.145
		c-0.083,0.045-0.167,0.093-0.251,0.142c-2.086,1.201-4.469,3.411-4.469,3.411l-5.931,7.086c0,0,0.721,0.198,1.329,0.808
		c0.609,0.61,0.816,1.341,0.816,1.341L567.076,219.135z"/>
	<path fill="currentColor" d="M550.257,228.609c0.229-0.636,0.446-1.235,0.784-1.73c0.685-0.997,1.889-1.617,3.145-1.617
		c0.206,0,0.406,0.023,0.603,0.056l2.02-2.73c0.015-0.021,0.058-0.01,0.111,0.013c0.038-0.111,0.091-0.219,0.169-0.312l5.931-7.086
		c0.026-0.032,0.056-0.063,0.086-0.092c0.54-0.502,2.597-2.361,4.591-3.508c-0.289-0.608-0.604-1.201-0.977-1.753
		c-0.485-0.994-1.56-1.616-2.714-1.457c-1.288,0.178-2.223,1.265-2.261,2.522l-0.013,0.005c0.088,1.721-1.151,3.253-2.89,3.493
		c-1.835,0.253-3.528-1.028-3.782-2.863c-0.152-1.107,0.256-2.159,1.005-2.878l-0.019-0.04c0.679-0.562,1.064-1.444,0.937-2.381
		c-0.199-1.438-1.523-2.443-2.964-2.245c-0.052,0.007-0.1,0.026-0.149,0.036l-0.007-0.013c-0.037,0.006-0.075,0.009-0.112,0.014
		c-7.342,1.014-12.47,7.786-11.455,15.126c0.646,4.684,3.64,8.463,7.627,10.324C550.04,229.201,550.149,228.905,550.257,228.609z
		 M550.626,207.417c1.287,0,2.332,1.044,2.332,2.333s-1.045,2.333-2.332,2.333c-1.288,0-2.334-1.044-2.334-2.333
		S549.338,207.417,550.626,207.417z M545.042,216.125c0-1.289,1.046-2.333,2.334-2.333c1.287,0,2.332,1.044,2.332,2.333
		s-1.045,2.333-2.332,2.333C546.088,218.458,545.042,217.414,545.042,216.125z M546.792,222.875c0-1.289,1.046-2.333,2.334-2.333
		c1.287,0,2.332,1.044,2.332,2.333s-1.045,2.333-2.332,2.333C547.838,225.208,546.792,224.164,546.792,222.875z"/>
	<path fill="currentColor" d="M567.809,219.815c-0.028,0.03-0.058,0.06-0.09,0.085l-7.077,5.94c-0.092,0.077-0.195,0.135-0.306,0.173
		c0.014,0.044,0.015,0.076-0.007,0.092l-2.665,1.98c0.07,0.295,0.118,0.597,0.118,0.907c0,0.573-0.136,1.125-0.371,1.632
		c0.003-0.001,0.005-0.001,0.009-0.001c6.306-0.872,10.966-5.995,11.516-12.076C568.547,219.005,568.162,219.436,567.809,219.815z"
		/>
</g>
</svg>
